<svg xmlns="http://www.w3.org/2000/svg" xmlns:xlink="http://www.w3.org/1999/xlink" preserveAspectRatio="xMidYMid meet" version="1.0" viewBox="1.0 1.0 510.0 510.0" zoomAndPan="magnify" style="fill: rgb(5, 68, 94);" original_string_length="1390"><g><g id="__id1_sdzbi387ck"><path d="M256,1C115.068,1,1,115.049,1,256c0,140.932,114.049,255,255,255c140.932,0,255-114.049,255-255 C511,115.068,396.951,1,256,1z M256,481C131.935,481,31,380.065,31,256S131.935,31,256,31s225,100.935,225,225 S380.065,481,256,481z" style="fill: inherit;"/><path d="M391,346H238.42c-6.192-17.459-22.865-30-42.42-30s-36.228,12.541-42.42,30H121c-8.284,0-15,6.716-15,15s6.716,15,15,15 h32.58c6.192,17.459,22.865,30,42.42,30s36.228-12.541,42.42-30H391c8.284,0,15-6.716,15-15S399.284,346,391,346z" style="fill: inherit;"/><path d="M391,151H238.42c-6.192-17.459-22.865-30-42.42-30s-36.228,12.541-42.42,30H121c-8.284,0-15,6.716-15,15s6.716,15,15,15 h32.58c6.192,17.459,22.865,30,42.42,30s36.228-12.541,42.42-30H391c8.284,0,15-6.716,15-15S399.284,151,391,151z" style="fill: inherit;"/><path d="M391,241h-32.58c-6.192-17.459-22.865-30-42.42-30s-36.228,12.541-42.42,30H121c-8.284,0-15,6.716-15,15s6.716,15,15,15 h152.58c6.192,17.459,22.865,30,42.42,30s36.228-12.541,42.42-30H391c8.284,0,15-6.716,15-15S399.284,241,391,241z" style="fill: inherit;"/></g></g></svg>