<svg xmlns="http://www.w3.org/2000/svg" xmlns:xlink="http://www.w3.org/1999/xlink" preserveAspectRatio="xMidYMid meet" version="1.0" viewBox="0.0 0.0 62.0 62.0" zoomAndPan="magnify" style="fill: rgb(5, 68, 94);" original_string_length="3803"><g id="__id3_sdzbi387ck"><circle cx="15" cy="5" r="1" style="fill: inherit;"/><path d="M20 12H26V14H20z" style="fill: inherit;"/><path d="M20 16H26V18H20z" style="fill: inherit;"/><path d="M20 20H26V22H20z" style="fill: inherit;"/><path d="M20 24H26V26H20z" style="fill: inherit;"/><path d="M59.401,25.559c-0.629-2.841-1.736-5.515-3.298-7.967l1.367-2.306L50.714,8.53l-2.306,1.367 c-2.452-1.562-5.126-2.669-7.967-3.298L39.776,4h-9.877C29.434,1.721,27.414,0,25,0H5C2.243,0,0,2.243,0,5v31.618h0.002L0,36.677 c0,0.343,0.064,0.678,0.214,1.052C1.399,40.691,2,43.811,2,47c0,2.191,1.047,4.285,2.8,5.6L6,53.5V62h18v-8.562 c1.771,0.869,3.63,1.536,5.559,1.964L30.224,58h9.553l0.665-2.599c2.841-0.629,5.515-1.736,7.967-3.299l2.306,1.366l6.755-6.754 l-1.366-2.307c1.562-2.452,2.669-5.126,3.298-7.967L62,35.776v-9.553L59.401,25.559z M22,56H8v-2h14V56z M21.884,33.22 C21.539,31.945,20.383,31,19,31c-0.395,0-0.77,0.081-1.116,0.22C17.539,29.945,16.383,29,15,29c-0.352,0-0.686,0.072-1,0.184V26h4 V12H4v14h4v13.917c0,0.085-0.151,0.098-0.165,0.015c0,0-0.136-0.816-0.306-1.796C7.112,35.739,5.045,34,2.614,34 C2.401,34,2.198,34.032,2,34.079V10h26v24h-2.78c-0.549-0.609-1.337-1-2.22-1C22.605,33,22.23,33.081,21.884,33.22z M8,23v1H6V14 h10v10h-2v-1c0-1.654-1.346-3-3-3S8,21.346,8,23z M12,5V2h6v3c0,1.654-1.346,3-3,3S12,6.654,12,5z M26,36h2v3 c0,1.302-0.839,2.402-2,2.816V36z M26,44.528v-0.629c2.279-0.465,4-2.484,4-4.899V12.679C31.623,12.237,33.3,12,35,12 c10.477,0,19,8.523,19,19s-8.523,19-19,19c-3.25,0-6.43-0.838-9.246-2.41C25.912,46.577,26,45.553,26,44.528z M28,5v3h-9.026 C19.609,7.162,20,6.13,20,5V2h5C26.654,2,28,3.346,28,5z M5,2h5v3c0,1.13,0.391,2.162,1.026,3H2V5C2,3.346,3.346,2,5,2z M4,47 c0-3.444-0.649-6.813-1.952-10.073C2.016,36.848,2,36.764,2,36.71l0.004-0.119C2.014,36.26,2.282,36,2.614,36 c1.457,0,2.695,1.043,2.945,2.479c0.169,0.971,0.304,1.779,0.304,1.78C6.031,41.269,6.895,42,7.917,42 C9.066,42,10,41.065,10,39.917V23c0-0.551,0.449-1,1-1s1,0.449,1,1v9v8h2v-8c0-0.551,0.449-1,1-1s1,0.449,1,1v2v6h2v-6 c0-0.552,0.449-1,1-1s1,0.448,1,1v2v4h2v-4c0-0.552,0.449-1,1-1s1,0.448,1,1v8.528c0,2.567-0.569,5.136-1.638,7.472H7.333L6,51 C4.748,50.061,4,48.565,4,47z M8,60v-2h14v2H8z M60,34.224l-2.311,0.591l-0.121,0.621c-0.589,3.018-1.758,5.84-3.473,8.388 l-0.353,0.524l1.215,2.051l-4.56,4.559l-2.05-1.215l-0.524,0.353c-2.548,1.716-5.37,2.884-8.388,3.474l-0.62,0.121L38.224,56 h-6.447l-0.591-2.311l-0.62-0.121c-2.04-0.399-4-1.085-5.852-2.012c0.236-0.628,0.438-1.268,0.61-1.917 C28.299,51.186,31.617,52,35,52c11.58,0,21-9.421,21-21c0-11.58-9.42-21-21-21c-1.695,0-3.37,0.209-5,0.607V6h8.224l0.591,2.311 l0.62,0.121c3.018,0.589,5.84,1.758,8.388,3.473l0.524,0.353l2.05-1.215l4.559,4.559l-1.215,2.05l0.353,0.524 c1.715,2.548,2.884,5.37,3.473,8.388l0.121,0.62L60,27.776V34.224z" style="fill: inherit;"/><path d="M44,31c0,2.206,1.794,4,4,4s4-1.794,4-4c0-2.206-1.794-4-4-4S44,28.794,44,31z M48,29c1.103,0,2,0.897,2,2 c0,1.103-0.897,2-2,2s-2-0.897-2-2C46,29.897,46.897,29,48,29z" style="fill: inherit;"/><path d="M43,24c1.654,0,3-1.346,3-3s-1.346-3-3-3s-3,1.346-3,3S41.346,24,43,24z M43,20c0.551,0,1,0.449,1,1s-0.449,1-1,1 s-1-0.449-1-1S42.449,20,43,20z" style="fill: inherit;"/><path d="M43,38c-1.654,0-3,1.346-3,3s1.346,3,3,3s3-1.346,3-3S44.654,38,43,38z M43,42c-0.551,0-1-0.448-1-1s0.449-1,1-1 s1,0.448,1,1S43.551,42,43,42z" style="fill: inherit;"/><path d="M32 30H42V32H32z" style="fill: inherit;"/><path d="M32 20H38V22H32z" style="fill: inherit;"/><path d="M32 40H38V42H32z" style="fill: inherit;"/><path d="M32 34H38V36H32z" style="fill: inherit;"/><path d="M40 34H42V36H40z" style="fill: inherit;"/><path d="M32 26H38V28H32z" style="fill: inherit;"/><path d="M40 26H42V28H40z" style="fill: inherit;"/></g></svg>