<svg xmlns="http://www.w3.org/2000/svg" viewBox="119.507 161.844 248.124 155.413">
  <g transform="matrix(0.35272, 0, 0, 0.342836, 115.320274, -7.405059)" style="">
    <g id="layer1">
      <g style="fill:rgb(0,0,0); fill-opacity:1.0; stroke-linejoin: miter">
        <path d="M82.24878,498.99432C62.274292,498.99432,45.899124,515.41077,45.899124,535.38574L45.899124,862.57605C45.899124,882.5498,62.274292,898.9252,82.24878,898.9252L641.16077,898.9457C661.13525,898.9252,677.5104,882.5498,677.5104,862.57605L677.5104,535.3871C677.5104,515.4121,661.1355,498.99567,641.16077,498.99567L82.24878,499.01593 Z M82.24878,519.8109L641.16077,519.8314C649.96265,519.8109,656.6925,526.5812,656.6925,535.38574L656.6925,862.57605C656.6925,871.3778,649.9624,878.1073,641.16077,878.1073L82.24878,878.12756C73.44696,878.1073,66.716995,871.3778,66.716995,862.57605L66.716995,535.3871C66.716995,526.5825,73.447136,519.81226,82.24878,519.81226 Z"></path>
      </g>
      <g style="fill:rgb(0,0,0); fill-opacity:1.0; stroke-linejoin: miter">
        <path d="M12.603572,904.9347C12.603574,926.90845,27.77751,944.6061,46.619568,944.6061L676.7903,944.6266C695.6319,944.6061,710.80615,926.91113,710.80615,904.9347L12.6034,904.9551 Z"></path>
      </g>
      <g style="fill:rgb(0,0,0); fill-opacity:1.0; stroke-linejoin: miter">
        <path d="M309.7138,913.2623L413.69577,913.28296C415.30014,913.2623,416.5918,914.5532,416.5918,916.1599C416.5918,917.76355,415.30014,919.056,413.69577,919.056L309.7138,919.07654C308.1094,919.056,306.8178,917.765,306.8178,916.1599C306.8178,914.556,308.1094,913.2623,309.7138,913.2623 Z"></path>
      </g>
    </g>
  </g>
  <g transform="matrix(0.128902, 0, 0, 0.128902, 198.577408, 327.438354)"></g>
  <g transform="matrix(0.900039, 0, 0, 0.946895, 154.266632, 184.168884)" style="">
    <g>
      <path d="M86.6,10.3c0-0.1,0-0.1,0-0.1c-1.5-2-3.3-3.7-5.4-5.3V5c-1.7,1.3-3.4,2.7-5,4.1c-0.7-0.4-1.3-0.7-1.9-1   c-0.8-0.4-1.6-0.8-2.5-1c-0.3-0.1-0.6-0.2-0.9-0.2c-0.2-2.2-0.4-4.4-0.7-6.6c-1-0.2-2-0.2-3.1-0.3c-0.3,0-0.6,0-0.8,0   c-0.3,0-0.6,0-0.8,0c-1,0.1-1.9,0.1-2.8,0.3c-0.3,2.1-0.5,4.3-0.6,6.5c-0.4,0-0.7,0.1-1.1,0.2c-0.1,0-0.2,0-0.3,0.1   c-0.8,0.2-1.6,0.6-2.4,1c-0.7,0.3-1.3,0.6-1.9,1c-1.7-1.4-3.3-2.7-5-4.1c0,0,0,0-0.1-0.1c-0.4,0.3-0.8,0.6-1.1,0.9   c-0.7,0.5-1.3,1.1-1.8,1.7c-0.9,0.8-1.6,1.8-2.4,2.8c0,0,0,0,0.1,0c1.3,1.7,2.7,3.3,4.1,5c-0.4,0.6-0.8,1.3-1.1,1.9   c-0.4,0.8-0.7,1.7-0.9,2.5c-0.2,0.4-0.3,0.8-0.3,1.1c-2.2,0.2-4.4,0.4-6.5,0.7c-0.2,1-0.3,2-0.3,3.1c0,1.5,0.1,3,0.4,4.4   c2.1,0.2,4.2,0.4,6.4,0.6c0,0.4,0.1,0.8,0.3,1.1c0.2,0.9,0.5,1.7,0.9,2.6c0.4,0.7,0.7,1.4,1.2,2c-1.4,1.7-2.8,3.3-4.1,5   c1.5,2.1,3.3,3.9,5.4,5.4v-0.1c1.6-1.3,3.3-2.7,4.9-4.1h0.1c0.5,0.3,1.1,0.6,1.6,0.9c0.9,0.4,1.9,0.8,2.8,1c0.4,0.1,0.7,0.2,1,0.3   c0.2,2.1,0.4,4.3,0.7,6.5c0.9,0.1,1.8,0.2,2.8,0.2c0.2,0,0.8,0,1.5,0c1.1,0,2.2-0.1,3.3-0.3c0.2-2.1,0.4-4.3,0.6-6.5   c0.3-0.1,0.6-0.2,0.9-0.3l0,0c0.9-0.2,1.7-0.5,2.5-0.9c0.7-0.3,1.4-0.7,2.1-1.2c0,0.1,0,0.1,0.1,0.1c1.6,1.4,3.3,2.8,5,4.1   c0.3-0.2,0.6-0.4,1-0.7c0.6-0.5,1.2-1.1,1.7-1.7c0.9-0.9,1.8-1.9,2.6-3c-1.4-1.7-2.8-3.4-4.2-5c0-0.1,0-0.1,0-0.1   c0.3-0.5,0.6-1.1,0.9-1.7c0.3-0.8,0.7-1.6,0.9-2.4c0-0.1,0-0.2,0.1-0.2c0-0.4,0.1-0.7,0.2-0.9c2.2-0.2,4.4-0.4,6.5-0.6   c0.2-1,0.2-2,0.3-3c0-0.3,0-0.6,0-0.9c0-0.2,0-0.5,0-0.8c-0.1-1-0.1-2-0.3-3c-2.1-0.2-4.3-0.4-6.5-0.6c-0.1-0.3-0.2-0.6-0.2-0.9   c-0.3-0.9-0.6-1.8-1-2.7c-0.3-0.6-0.7-1.3-1-1.9C83.8,13.7,85.2,12,86.6,10.3z M59.9,18.6c1.8-1.9,4-2.8,6.5-2.7   c2.6-0.1,4.7,0.8,6.6,2.7c1.8,1.8,2.7,4,2.7,6.5c0,2.6-0.9,4.7-2.7,6.6c-1.9,1.8-4,2.7-6.6,2.7c-2.5,0-4.7-0.9-6.5-2.7   c-1.8-1.9-2.7-4-2.7-6.6C57.2,22.6,58.1,20.4,59.9,18.6z"></path>
      <path d="M66.5,17.2c-2.2,0-4,0.8-5.6,2.3c-1.5,1.6-2.3,3.4-2.3,5.6s0.8,4,2.3,5.6l0,0c1.6,1.6,3.4,2.4,5.6,2.4s4-0.8,5.6-2.4l0,0   c1.6-1.6,2.3-3.4,2.3-5.6l0,0c0-2.2-0.7-4-2.3-5.6C70.5,18,68.7,17.2,66.5,17.2z M62.3,20.9c1.2-1.1,2.6-1.7,4.2-1.7s3,0.6,4.2,1.7   c1.2,1.2,1.7,2.5,1.7,4.2l0,0c0,1.7-0.5,3.1-1.7,4.2c-1.2,1.2-2.6,1.8-4.2,1.8s-3-0.6-4.2-1.8c-1.1-1.1-1.7-2.5-1.7-4.2   C60.6,23.5,61.2,22.1,62.3,20.9z"></path>
      <path d="M40.8,33.6c-0.4-0.2-0.7-0.3-1-0.3c-1.2-0.3-2.4-0.5-3.6-0.7c-1.1,2.7-2,5.3-2.9,7.9c-0.5,0-1,0-1.4,0c-0.2,0-0.3,0-0.4,0   c-1.2,0.1-2.3,0.2-3.4,0.4c-0.9,0.1-1.8,0.4-2.7,0.7c-1.6-2.3-3.3-4.6-4.9-6.8c-0.1-0.1-0.1-0.1-0.1-0.1c-0.6,0.2-1.2,0.4-1.7,0.7   c-1,0.4-1.9,0.9-2.8,1.5c-1.4,0.7-2.7,1.6-3.9,2.7c0,0,0,0,0,0.1c1.2,2.5,2.3,5,3.5,7.5c-0.7,0.7-1.3,1.3-1.9,2.1   c-0.8,0.8-1.5,1.8-2.1,2.8l0,0c-0.3,0.4-0.5,0.8-0.7,1.3c-2.8-0.5-5.6-1-8.4-1.4c-0.5,1.2-1,2.4-1.4,3.7c-0.4,2-0.8,3.9-1,5.8   c2.6,1,5.2,2,7.8,3c0,0.4,0,0.9,0,1.4c0,1.1,0.1,2.3,0.4,3.5c0.1,1,0.4,2,0.7,3c-2.3,1.6-4.5,3.2-6.8,4.9c1.2,3,2.9,5.8,4.9,8.4   c0,0,0,0,0.1,0c2.5-1.2,5-2.3,7.6-3.5l0,0c0.6,0.6,1.2,1.1,1.8,1.7c0.9,0.8,2,1.5,3.2,2.2c0.3,0.2,0.7,0.4,1.1,0.7   c-0.5,2.7-0.9,5.5-1.3,8.3c1.1,0.5,2.2,0.9,3.4,1.2c0.3,0.1,0.9,0.3,1.9,0.5c1.4,0.4,2.8,0.6,4.1,0.8c1.1-2.7,2.1-5.3,3-8   c0.4,0,0.8,0,1.2,0h0.1c1.2,0,2.3-0.1,3.4-0.3c1-0.2,2-0.5,3-0.8c0,0,0,0.1,0.1,0.1c1.6,2.3,3.3,4.6,4.9,6.9c0.5-0.3,1-0.5,1.4-0.7   c1-0.4,1.9-0.9,2.8-1.4c1.5-0.9,2.9-1.9,4.2-3c-1.1-2.6-2.3-5.1-3.5-7.7l0,0c0.6-0.6,1.1-1.2,1.7-1.8c0.7-0.9,1.4-1.9,2-2.8   c0-0.1,0.1-0.2,0.1-0.3c0.2-0.3,0.4-0.7,0.6-1c2.8,0.5,5.6,0.9,8.4,1.4c0.5-1.2,0.9-2.4,1.3-3.7c0.1-0.3,0.2-0.6,0.3-1   c0.1-0.3,0.1-0.6,0.3-1c0.2-1.3,0.5-2.6,0.6-3.8c-2.6-1.1-5.3-2-7.9-3c0-0.4,0-0.7,0-1.2c0-1.2-0.1-2.5-0.4-3.7   c-0.1-0.9-0.4-1.8-0.6-2.7c2.3-1.6,4.6-3.3,6.8-5c0,0,0,0,0.1,0c-1.2-3-2.8-5.8-5-8.4l0,0c-2.6,1.1-5.1,2.3-7.6,3.5   c-0.7-0.7-1.4-1.4-2.1-2c-0.9-0.7-1.8-1.4-2.8-1.9c-0.3-0.3-0.7-0.5-1-0.7c0.4-2.8,0.9-5.6,1.3-8.4c-1.2-0.5-2.5-1-3.8-1.4   C41.5,33.7,41.1,33.6,40.8,33.6z M22.2,71c-1.7-2.9-2.1-5.9-1.2-9.1c0.8-3.2,2.7-5.6,5.6-7.3c2.8-1.6,5.9-2,9-1.2   c3.2,0.9,5.7,2.7,7.3,5.6c1.7,2.9,2.1,5.9,1.2,9.1c-0.8,3.2-2.7,5.6-5.5,7.2c-3,1.7-6,2.1-9.1,1.2C26.3,75.7,23.8,73.8,22.2,71z"></path>
      <path d="M22.8,62.4c-0.8,2.7-0.5,5.3,0.9,7.7h0.1c1.4,2.5,3.5,4,6.2,4.8c2.7,0.7,5.3,0.4,7.8-1l0,0c2.5-1.5,4-3.5,4.8-6.2v-0.1   c0.7-2.7,0.3-5.3-1.1-7.7c-1.4-2.5-3.5-4.1-6.2-4.8c-2.7-0.8-5.4-0.4-7.8,1C25,57.5,23.5,59.6,22.8,62.4z M28.8,58.4   c1.9-1.1,3.8-1.4,5.8-0.8c2,0.5,3.6,1.7,4.7,3.6c1.1,1.8,1.3,3.8,0.8,5.8c-0.6,2-1.8,3.6-3.6,4.6v0.1c-1.9,1-3.8,1.3-5.8,0.7   c-2.1-0.5-3.6-1.7-4.7-3.6c-1-1.8-1.3-3.7-0.8-5.8C25.8,61,27,59.5,28.8,58.4z"></path>
    </g>
  </g>
  <g transform="matrix(2.237299, 0, 0, 2.511819, 253.843018, 192.929871)" style="">
    <path style="fill:none;stroke:#000;stroke-width:2;stroke-linejoin:round;stroke-linecap:round" d="m8,11-6-6a1,1 0 0,1 2-2l6,6 2,4-4-1.8m1,0 1-1
M8,24V11m0-4V2h21v28H8l-4-6h21l4,6M29,2l5,8H29
M13,7h12m0,4H13m4,4h8m0,4H13"></path>
  </g>
</svg>